# xmcd CD database file
#
# Track frame offsets:
#	183
#	15820
#	26683
#	44358
#	56608
#	70333
#	93108
#	109158
#	116033
#	130458
#	153608
#	173433
#
# Disc length: 2507 seconds
#
# Revision: 0
# Processed by: cddbd v1.4PL0 Copyright (c) Steve Scherf et al.
# Submitted via: Feurio! 1.65 - http://www.feurio.com
#
DISCID=9609c90c
DTITLE=Andy J. Forest Band - Hog Wild
DYEAR=1900
DGENRE=Bluesrock
TTITLE0=Never been to Chikago
TTITLE1=No stoppin' me
TTITLE2=In cold Blues
TTITLE3=No love left
TTITLE4=Dodge
TTITLE5=You'll never leave
TTITLE6=Startin' all over
TTITLE7=Slammer
TTITLE8=Workin' in a coal mine
TTITLE9=Bulldog
TTITLE10=Off the Walter
TTITLE11=Low Rider
EXTD=
EXTT0=
EXTT1=
EXTT2=
EXTT3=
EXTT4=
EXTT5=
EXTT6=
EXTT7=
EXTT8=
EXTT9=
EXTT10=
EXTT11=
PLAYORDER=
